HIERARCHY
ROOT Hips
{
  OFFSET 35.5644 99.5536 17.105
  CHANNELS 6 Xposition Yposition Zposition Zrotation Xrotation Yrotation
  JOINT ToSpine
  {
    OFFSET -0.0105055 1.38907 -7.13956
    CHANNELS 3 Zrotation Xrotation Yrotation
    JOINT Spine
    {
      OFFSET 0.0105055 10 1
      CHANNELS 3 Zrotation Xrotation Yrotation
      JOINT Spine1
      {
        OFFSET 0 12 1.60637
        CHANNELS 3 Zrotation Xrotation Yrotation
        JOINT Neck
        {
          OFFSET 0 27 2.26658
          CHANNELS 3 Zrotation Xrotation Yrotation
          JOINT Head
          {
            OFFSET 0 9 2.12705
            CHANNELS 3 Zrotation Xrotation Yrotation
            End Site
            {
              OFFSET 0 11 2
            }
          }
        }
        JOINT LeftShoulder
        {
          OFFSET 8 19.6109 2.86452
          CHANNELS 3 Zrotation Xrotation Yrotation
          JOINT LeftArm
          {
            OFFSET 12 1 0.681055
            CHANNELS 3 Zrotation Xrotation Yrotation
            JOINT LeftForeArm
            {
              OFFSET 19 0 -1.52608
              CHANNELS 3 Zrotation Xrotation Yrotation
              JOINT LeftHand
              {
                OFFSET 23 0 0
                CHANNELS 3 Zrotation Xrotation Yrotation
                End Site
                {
                  OFFSET 10 0 0
                }
              }
            }
          }
        }
        JOINT RightShoulder
        {
          OFFSET -8 19.6109 2.86452
          CHANNELS 3 Zrotation Xrotation Yrotation
          JOINT RightArm
          {
            OFFSET -12 1 0.681055
            CHANNELS 3 Zrotation Xrotation Yrotation
            JOINT RightForeArm
            {
              OFFSET -19 0 -1.52608
              CHANNELS 3 Zrotation Xrotation Yrotation
              JOINT RightHand
              {
                OFFSET -23 0 0
                CHANNELS 3 Zrotation Xrotation Yrotation
                End Site
                {
                  OFFSET -10 0 0
                }
              }
            }
          }
        }
      }
    }
  }
  JOINT LeftUpLeg
  {
    OFFSET 9 -7.17245 0
    CHANNELS 3 Zrotation Xrotation Yrotation
    JOINT LeftLeg
    {
      OFFSET 0 -44.1113 0
      CHANNELS 3 Zrotation Xrotation Yrotation
      JOINT LeftFoot
      {
        OFFSET 0 -36.1829 0
        CHANNELS 3 Zrotation Xrotation Yrotation
        JOINT LeftToeBase
        {
          OFFSET 0 -4.84184 13
          CHANNELS 3 Zrotation Xrotation Yrotation
          End Site
          {
            OFFSET 0 1 6
          }
        }
      }
    }
  }
  JOINT RightUpLeg
  {
    OFFSET -9 -7.17245 0
    CHANNELS 3 Zrotation Xrotation Yrotation
    JOINT RightLeg
    {
      OFFSET 0 -44.0551 0
      CHANNELS 3 Zrotation Xrotation Yrotation
      JOINT RightFoot
      {
        OFFSET 0 -36.1469 0
        CHANNELS 3 Zrotation Xrotation Yrotation
        JOINT RightToeBase
        {
          OFFSET 0 -4.92256 13
          CHANNELS 3 Zrotation Xrotation Yrotation
          End Site
          {
            OFFSET 0 1 6
          }
        }
      }
    }
  }
}
MOTION
Frames:	17
Frame Time:	0.0333333
32.285 99.0108 23.4075 -0.345402 -5.64796 -1.95701 0 0 0 7.22108 -2.89846 1.54668 -10.5353 -0.141209 2.74908 11.8002 -12.6749 -0.820421 -6.21673 5.95016 3.10112 25.4694 0.0899577 4.09592 -19.3885 -41.8804 -93.1223 105.166 -86.0837 104.021 -27.7826 -2.61004 10.5251 -24.878 1.25022 -12.8602 26.5232 -40.8616 82.3615 -7.86681 -74.3365 -8.54287 17.9381 -0.556 -3.51943 4.06106 13.0464 10.1385 -1.53073 4.30873 -3.67292 1.95614 -11.0021 0.188299 0.694832 0.160168 -2.93352 0.893028 12.5864 -7.62885 0.0670727 2.88219 -4.93584 -10.9411 -3.85176 -0.367454 3.76072 -13.9859 -3.98968 
32.0807 99.0742 23.5319 -0.307756 -5.41449 -1.60535 0 0 0 7.48877 -1.97735 1.25895 -11.3375 -0.867495 2.57388 13.7464 -14.808 -0.733617 -7.97513 6.55476 3.82294 27.8157 0.349255 5.7129 -22.7004 -42.2387 -95.6487 103.253 -85.2882 101.401 -27.1707 -2.52711 10.4304 -24.9017 1.13872 -12.0233 19.1782 -42.6387 76.7395 -17.8518 -78.6816 -18.9638 18.3566 -0.697581 -4.31554 4.36196 12.6342 10.3271 -1.7588 4.59098 -4.25756 2.76375 -10.1428 0.243643 0.657776 -0.741692 -2.62426 0.962589 12.5188 -7.68963 0.313145 2.52307 -5.17775 -11.1822 -2.76342 -0.270428 4.08856 -15.3632 -4.06845 
31.8735 99.2525 23.5828 -0.329381 -4.77084 -1.27565 0 0 0 7.30488 -1.5642 0.942341 -10.7537 -1.34908 2.18016 13.1225 -16.3873 -0.154418 -7.45689 6.0096 3.89098 27.6932 0.392853 5.96709 -19.5295 -43.9234 -93.7357 130.349 -84.1311 128.438 -27.0378 -2.57928 10.6996 -27.6016 1.22638 -11.2565 18.8527 -43.8607 74.315 -22.7588 -79.1803 -23.6103 18.4701 -0.832007 -5.11751 4.67535 11.9736 10.4155 -1.99912 4.23807 -4.72738 3.16276 -8.69637 0.242244 0.631525 -2.16187 -2.21835 1.12938 11.8815 -7.63215 0.288462 2.40291 -5.71021 -9.99527 -2.59684 -0.22741 3.85975 -14.3905 -3.16208 
31.6956 99.4818 23.6152 -0.252099 -4.10561 -1.06881 0 0 0 7.46533 -1.15447 1.06413 -11.1193 -1.76663 2.37359 13.508 -18.3676 -0.0992551 -7.33513 6.10016 3.74655 28.824 0.548336 6.7596 -20.2019 -44.9323 -94.9952 135.909 -83.6698 133.482 -26.7861 -2.63766 11.0442 -27.8997 1.30972 -11.5829 14.7002 -44.7841 70.8395 -27.423 -80.2283 -28.341 18.5856 -0.991733 -6.05434 4.82587 11.0984 10.3391 -1.98503 4.25144 -4.69725 2.12618 -7.67391 0.14175 0.700225 -2.41725 -2.48166 1.20491 11.0991 -7.46636 0.312841 2.31043 -5.79665 -9.87666 -1.26302 -0.109418 4.06046 -15.2182 -3.4573 
31.5291 99.7639 23.5647 -0.205214 -3.50458 -1.05547 0 0 0 7.47511 -0.648699 1.31078 -10.7871 -1.96514 2.62908 12.2535 -21.1421 -0.235723 -6.28716 7.05038 2.89761 29.4116 0.598871 6.92532 -18.063 -46.3738 -93.5892 149.901 -81.5055 147.212 -27.0552 -2.69578 11.1726 -30.0245 1.85642 -13.8418 16.6262 -44.9565 72.4875 -31.6611 -81.3901 -32.3295 19.6626 -1.09801 -6.33122 5.03473 10.4219 10.4151 -2.28049 3.91138 -4.78295 2.22632 -5.82242 0.113201 0.728499 -3.83681 -2.30803 1.21917 10.1934 -7.35302 0.338366 2.52542 -6.24108 -10.2403 -0.479155 -0.0398315 4.0416 -15.0832 -2.26303 
31.3527 100.01 23.5057 -0.127515 -2.82496 -0.843655 0 0 0 7.55614 -0.546891 1.12051 -11.1845 -1.88941 2.52797 13.5045 -23.8388 -0.015391 -7.48504 8.04241 3.31397 30.6817 0.920897 8.47146 -16.9954 -47.3536 -93.883 157.396 -79.3392 154.382 -25.982 -2.62837 11.3571 -29.5927 1.8611 -14.0732 12.7967 -45.8538 70.3295 -37.15 -82.5021 -37.8468 19.8477 -1.22993 -7.02032 5.11968 9.3568 10.273 -2.27794 4.02337 -4.83549 2.27715 -4.38382 0.0877084 0.739807 -4.90634 -2.1181 1.2383 9.3073 -7.16227 0.450219 2.39758 -6.23686 -11.027 1.32636 0.124792 4.42277 -16.6337 -2.80735 
31.2528 100.269 23.4422 0.0212187 -2.18742 -0.723212 0 0 0 7.80335 0.0317467 1.22806 -11.5053 -2.55985 2.66987 13.2968 -25.8249 -0.0762924 -7.59765 9.0664 3.09102 31.7204 1.03382 8.80382 -16.1735 -48.0858 -93.4434 161.837 -77.3809 158.524 -25.42 -2.6118 11.5431 -31.0013 1.92088 -13.6667 9.21805 -45.7304 66.0817 -54.7268 -84.4245 -55.4929 20.3705 -1.33426 -7.41765 4.91306 8.27434 9.90913 -2.04608 4.24419 -4.64176 2.63388 -2.73187 0.0601985 0.734894 -6.22351 -1.74119 1.06834 8.47552 -7.15742 0.489488 2.29866 -6.34275 -10.3318 2.64508 0.240372 4.67402 -17.5437 -2.18051 
31.0669 100.464 23.3661 0.136387 -1.3598 -0.603084 0 0 0 7.81377 0.212579 1.25097 -11.7843 -3.04846 2.71018 13.952 -27.3556 -0.0368848 -8.02715 9.85954 3.15726 33.1932 1.18246 9.17616 -14.0051 -48.7069 -91.6041 165.783 -74.6195 162.448 -25.3369 -2.70046 11.971 -31.4228 2.12924 -14.5359 9.30038 -46.1249 66.5316 -51.9628 -84.2148 -52.5886 20.7882 -1.386 -7.54536 4.96114 6.97092 9.72513 -2.02204 4.5982 -4.59566 3.20313 -1.36419 0.039642 0.834187 -7.36412 -1.97647 1.12193 7.49734 -6.89173 0.52062 2.02515 -6.98385 -11.4222 4.01087 0.402681 5.00937 -18.7112 -1.56289 
30.9063 100.584 23.3169 0.303848 -0.895848 -0.777366 0 0 0 7.52822 0.498875 1.34435 -11.5125 -3.21115 2.75701 13.6886 -28.9683 0.345502 -7.59053 11.147 3.22624 33.5351 1.40914 10.1588 -10.8893 -49.2799 -89.619 168.318 -71.725 165.222 -25.4935 -2.77523 12.2231 -32.8974 2.00793 -13.2914 6.35315 -46.0893 62.2787 -68.365 -85.0797 -68.9856 21.2299 -1.5054 -8.01797 4.93189 6.02321 9.69368 -1.92184 5.29959 -4.1607 2.1043 -1.02551 0.016804 0.867235 -7.11783 -2.21954 0.963172 6.93522 -6.91065 0.91484 1.76496 -6.47514 -13.209 5.54007 0.642759 5.38104 -20.3296 -2.53173 
30.7625 100.65 23.3219 0.401071 -0.619614 -1.03256 0 0 0 7.89299 0.844619 1.49143 -12.1269 -3.46309 2.98585 13.7869 -29.6735 0.336504 -7.50181 11.6196 3.13326 34.4119 1.57533 10.6802 -9.24214 -49.5031 -88.2856 169.286 -70.2786 166.287 -25.14 -2.70198 12.0742 -34.5323 1.32377 -9.47728 -1.55161 -43.761 51.5349 -117.22 -84.7834 -118.285 21.649 -1.62689 -8.49561 5.03155 5.45258 9.78881 -2.13005 5.75449 -4.03543 3.13553 -0.0170459 0.00145975 0.982333 -8.91662 -2.40338 0.925548 6.72908 -6.83398 0.991172 1.34655 -6.20987 -13.8436 6.4533 0.785333 5.64491 -21.3747 -2.67101 
30.5764 100.763 23.296 0.384934 -0.0440892 -0.992727 0 0 0 8.63798 1.02225 1.43149 -13.2633 -4.20897 3.03355 14.3617 -29.4466 0.323494 -7.64483 11.7186 3.22382 35.507 1.56051 10.2953 -8.11704 -49.4862 -86.8797 170.037 -69.0379 167.078 -25.5851 -2.91604 12.7922 -34.7664 1.72348 -11.2275 1.91344 -44.2037 55.0169 -117.625 -84.7746 -118.462 21.8909 -1.60519 -8.28556 5.3005 4.72571 9.88763 -2.26608 5.79232 -4.28664 2.60399 0.532825 -0.0120355 0.964298 -8.95657 -2.2774 1.18996 6.18579 -6.4884 0.626178 1.09354 -6.74324 -11.9093 5.99442 0.625411 5.18671 -19.4807 -2.03523 
30.4712 100.797 23.2945 0.582088 0.0464628 -1.21717 0 0 0 8.45762 1.2998 1.43491 -12.925 -4.25736 3.00299 13.9215 -30.3718 0.620108 -7.90278 12.2251 3.46051 35.3497 1.62096 10.6029 -6.18527 -49.6114 -84.8241 170.545 -67.8599 167.743 -25.8203 -3.11674 13.544 -35.215 1.78267 -11.3518 3.95574 -45.4979 56.6526 -101.944 -85.2978 -102.395 22.1647 -1.77449 -9.03969 5.21259 4.50507 9.86613 -2.25986 5.99554 -4.06803 2.12459 0.919463 -0.017463 1.05421 -9.34195 -2.72478 0.968912 6.20486 -6.63464 0.813685 0.77727 -6.30609 -12.6378 6.41664 0.711179 5.28589 -19.8821 -2.15492 
30.3512 100.817 23.2765 0.840919 0.275502 -1.4904 0 0 0 8.37311 1.31135 1.54387 -13.1015 -4.36116 3.14984 12.775 -30.8265 0.571517 -6.05441 13.1707 2.79013 35.7472 1.68646 10.7755 -6.45318 -49.43 -84.5965 170.089 -68.6335 167.312 -26.8652 -3.05918 12.7564 -35.4219 1.173 -8.62654 -1.28895 -44.2789 50.0153 -121.42 -84.5742 -122.14 22.3184 -1.96154 -9.92081 5.05281 4.35304 9.79486 -2.35377 5.82274 -4.05089 2.18409 1.54738 -0.031742 1.03705 -10.0052 -2.42414 0.72132 5.91331 -6.78371 0.894924 0.75661 -6.24538 -12.9477 6.51336 0.739776 5.42054 -20.2105 -1.38233 
30.1509 100.813 23.2444 0.936091 0.515767 -1.50143 0 0 0 7.92658 1.2385 1.53525 -12.5042 -4.34994 3.03732 11.5631 -31.5883 0.53623 -5.14396 13.849 2.37657 35.3175 1.73104 11.0944 -4.67856 -49.3216 -83.3473 170.61 -67.1269 168.117 -26.5973 -3.02402 12.7421 -35.4365 1.80399 -11.3777 4.61158 -45.8834 56.9702 -101.235 -85.3124 -101.555 22.3304 -1.88484 -9.52848 5.20474 3.80371 9.84524 -2.28281 6.43804 -4.7333 1.30231 1.66868 -0.0317099 0.914785 -10.1435 -1.5803 0.854732 5.80875 -6.48973 0.709871 0.357087 -6.47889 -13.0066 6.66682 0.760144 5.37506 -20.0245 -1.30281 
30.0194 100.781 23.1769 1.10109 0.706221 -1.43129 0 0 0 7.78514 1.26358 1.44366 -12.5209 -4.62061 2.93291 11.9184 -31.0495 0.55888 -5.56767 13.2525 2.57355 35.8769 1.60904 10.4056 -4.6107 -49.0555 -82.0852 170.696 -67.0064 168.175 -25.7017 -2.95581 12.9044 -35.9812 1.65968 -10.5943 4.86684 -45.8655 55.8952 -92.1323 -85.4037 -92.3646 22.3403 -1.87075 -9.45333 5.04455 3.60816 9.69198 -2.21243 6.25619 -4.31486 1.53724 1.68816 -0.0268308 0.976465 -10.1404 -1.98926 0.796851 5.65119 -6.49152 0.686145 0.29155 -6.45219 -13.0837 6.38854 0.739015 5.3474 -20.0136 -1.73688 
29.8894 100.755 23.1613 1.03699 0.802793 -1.44641 0 0 0 8.22501 0.975078 1.48088 -13.0931 -4.36928 3.07292 13.9262 -30.8558 0.749196 -8.12175 12.7261 3.61656 36.3491 1.55467 10.0492 -6.68946 -49.3062 -83.549 170.734 -67.7606 167.788 -25.6323 -3.18789 13.9475 -36.4506 1.36271 -9.21773 2.91076 -45.029 52.1994 -99.9865 -85.3315 -100.346 22.2174 -1.87939 -9.55004 5.18349 3.75291 9.78146 -2.33665 5.71937 -3.92803 1.70776 1.53505 -0.0226094 1.07629 -9.88826 -2.70966 0.940608 5.78187 -6.49445 0.394656 0.166881 -6.33156 -9.94042 4.77411 0.413931 4.53675 -16.9204 -1.38858 
29.7069 100.659 23.0927 0.879202 1.24102 -1.50007 0 0 0 8.05295 0.49941 1.6103 -12.6765 -4.28983 3.10548 13.3835 -31.4554 0.623945 -7.45571 13.7014 3.26158 36.4686 1.53144 9.92501 -7.00572 -49.2234 -83.5483 170.611 -68.0326 167.64 -25.6799 -3.15012 13.7574 -36.1219 1.28307 -8.97921 0.0898737 -44.1882 50.4046 -122.698 -84.5015 -123.321 22.4619 -1.90638 -9.57915 5.704 3.11319 10.1931 -2.67514 6.16712 -4.21 1.73591 1.1722 -0.0176806 1.08379 -10.0399 -2.71352 1.12566 5.51219 -6.34881 0.370701 -0.0153132 -6.2379 -8.28101 3.84575 0.277542 4.12394 -15.3467 -1.05532 
